# This file uses centimeters as units for non-parametric coordinates.

mtllib Gate_Pillar.mtl
g default
v -0.082251 0.714729 -0.005191
v -0.099009 0.757354 0.046778
v -0.098895 0.757354 -0.000763
v -0.108204 0.755567 -0.001405
v -0.111466 0.755567 0.045919
v -0.110851 0.714702 0.045962
v -0.107589 0.714702 -0.001363
v -0.098682 0.724066 -0.006323
v -0.099561 0.724066 0.052314
v -0.111043 0.725191 -0.001601
v -0.114305 0.725191 0.045724
v -0.098494 0.748459 -0.006310
v -0.111468 0.745390 -0.001630
v -0.114730 0.745390 0.045694
v -0.099373 0.748459 0.052327
v -0.081956 0.755907 -0.005170
v -0.085983 0.755907 0.053250
v -0.085965 0.748510 0.053251
v -0.081938 0.748510 -0.005169
v -0.072063 0.755921 -0.004488
v -0.076090 0.755921 0.053932
v -0.076072 0.748524 0.053934
v -0.072045 0.748524 -0.004487
v -0.085863 0.706461 0.053259
v -0.081836 0.706461 -0.005162
v -0.071943 0.706475 -0.004480
v -0.075970 0.706475 0.053941
v -0.081982 0.766631 -0.005172
v -0.086009 0.766631 0.053248
v -0.076116 0.766645 0.053930
v -0.072089 0.766645 -0.004490
v -0.098679 0.713476 -0.000748
v -0.099358 0.713475 0.046754
v -0.049809 -0.007622 0.088795
v -0.074015 -0.007622 0.072236
v -0.079970 -0.007622 0.041035
v 0.081831 -0.007622 0.068093
v 0.066048 -0.007622 0.095658
v 0.037771 -0.007622 0.103441
v -0.056471 1.293986 0.030132
v -0.065625 1.279190 0.028068
v -0.060375 1.280681 0.053747
v -0.039387 1.282443 0.067953
v -0.037570 1.295037 0.057633
v -0.034122 1.300547 0.036470
v 0.065068 1.291211 0.038843
v 0.041793 1.295754 0.038047
v 0.038020 1.292215 0.058671
v 0.036271 1.279495 0.069035
v 0.060957 1.277787 0.062477
v 0.074395 1.276415 0.039870
v -0.048298 1.287892 -0.102389
v -0.064510 1.291934 -0.061100
v -0.052603 1.304676 -0.076852
v -0.030729 1.311310 -0.072803
v -0.026274 1.304520 -0.100102
v -0.024482 1.287412 -0.110157
v 0.095796 1.284574 -0.060491
v 0.075803 1.284093 -0.075585
v 0.074712 1.301220 -0.065758
v 0.070196 1.301685 -0.037609
v 0.091727 1.298291 -0.034865
v 0.100302 1.284781 -0.031782
v -0.066070 -0.007622 -0.042090
v -0.050287 -0.007622 -0.069655
v -0.022010 -0.007622 -0.077438
v 0.065570 -0.007622 -0.062792
v 0.089776 -0.007622 -0.046233
v 0.095732 -0.007622 -0.015032
v -0.055388 1.291785 0.049496
v 0.057642 1.288959 0.056810
v -0.044959 1.301531 -0.098032
v 0.091431 1.298270 -0.057745
v -0.071659 0.739991 0.078690
v -0.077479 0.744400 0.049839
v -0.072042 0.778290 -0.037895
v -0.055208 0.784724 -0.075855
v -0.028519 0.787037 -0.083879
v 0.072110 0.779510 -0.056001
v 0.094737 0.777196 -0.039730
v 0.100102 0.770763 -0.009108
v 0.077916 0.744400 0.067827
v 0.062949 0.739860 0.093218
v 0.035642 0.739020 0.100642
v -0.048403 0.739201 0.094585
v -0.074315 1.060915 0.039734
v -0.068545 1.058461 0.067710
v -0.045642 1.058021 0.083359
v 0.037092 1.057920 0.086205
v 0.064039 1.058387 0.078914
v 0.078702 1.060915 0.054333
v 0.103988 1.075596 -0.020296
v 0.098843 1.079178 -0.050705
v 0.076805 1.080467 -0.066871
v -0.028714 1.084658 -0.099698
v -0.054813 1.083370 -0.091583
v -0.072042 1.079787 -0.049733
v -0.074227 0.290962 0.073514
v -0.080245 0.292814 0.042676
v -0.069621 0.307048 -0.044048
v -0.053080 0.309750 -0.076531
v -0.024905 0.310722 -0.084570
v 0.069908 0.307560 -0.064074
v 0.093935 0.306589 -0.047305
v 0.099762 0.303887 -0.015723
v 0.082103 0.292814 0.066466
v 0.066347 0.290907 0.093669
v 0.037912 0.290554 0.101457
v -0.049936 0.290630 0.090126
v -0.086278 0.714729 0.053230
v -0.086278 0.714729 0.053230
v -0.086278 0.714729 0.053230
v -0.086278 0.714729 0.053230
v -0.082251 0.714729 -0.005191
v -0.082251 0.714729 -0.005191
v -0.082251 0.714729 -0.005191
v -0.086293 0.724183 0.053229
v -0.086293 0.724183 0.053229
v -0.086293 0.724183 0.053229
v -0.086293 0.724183 0.053229
v -0.082267 0.724183 -0.005192
v -0.082267 0.724183 -0.005192
v -0.082267 0.724183 -0.005192
v -0.082267 0.724183 -0.005192
v -0.081938 0.748510 -0.005169
v -0.072045 0.748524 -0.004487
v -0.071994 0.724180 -0.004484
v -0.082267 0.724183 -0.005192
v -0.076072 0.748524 0.053934
v -0.085965 0.748510 0.053251
v -0.086293 0.724183 0.053229
v -0.076021 0.724180 0.053937
v -0.076021 0.724180 0.053937
v -0.086293 0.724183 0.053229
v -0.086278 0.714729 0.053230
v -0.075990 0.714885 0.053939
v -0.082267 0.724183 -0.005192
v -0.071994 0.724180 -0.004484
v -0.071963 0.714885 -0.004482
v -0.082251 0.714729 -0.005191
v -0.075990 0.714885 0.053939
v -0.086278 0.714729 0.053230
v -0.085863 0.706461 0.053259
v -0.075970 0.706475 0.053941
v -0.082251 0.714729 -0.005191
v -0.071963 0.714885 -0.004482
v -0.071943 0.706475 -0.004480
v -0.081836 0.706461 -0.005162
vt 0.870540 0.573286
vt 0.936458 0.570688
vt 0.841610 0.616587
vt 0.856077 0.573227
vt 0.925208 0.565123
vt 0.883062 0.565470
vt 0.881964 0.559511
vt 0.929336 0.559042
vt 0.928467 0.600704
vt 0.891506 0.598795
vt 0.890839 0.592490
vt 0.925847 0.592721
vt 0.888167 0.585873
vt 0.925700 0.585874
vt 0.883072 0.594969
vt 0.936625 0.595838
vt 0.883812 0.572729
vt 0.924388 0.572066
vt 0.934529 0.610921
vt 0.889641 0.610843
vt 0.878115 0.614617
vt 0.886094 0.611025
vt 0.892328 0.618021
vt 0.931978 0.618779
vt 0.932170 0.626442
vt 0.892749 0.625557
vt 0.943061 0.618357
vt 0.937799 0.619561
vt 0.921705 0.534281
vt 0.887048 0.534679
vt 0.886981 0.528810
vt 0.921638 0.528412
vt 0.888353 0.620069
vt 0.883976 0.620170
vt 0.884422 0.612483
vt 0.884408 0.612475
vt 0.989202 0.539994
vt 0.945132 0.540801
vt 0.945002 0.533687
vt 0.989072 0.532880
vt 0.921761 0.539181
vt 0.887104 0.539578
vt 0.863405 0.559095
vt 0.869992 0.555442
vt 0.880824 0.546423
vt 0.934400 0.548020
vt 0.943087 0.559118
vt 0.946126 0.566578
vt 0.118587 0.681217
vt 0.118628 0.667479
vt 0.246987 0.667280
vt 0.247724 0.680831
vt 0.118645 0.654798
vt 0.246890 0.654588
vt 0.118659 0.616417
vt 0.118714 0.603751
vt 0.247200 0.603668
vt 0.246974 0.616386
vt 0.118827 0.590040
vt 0.248163 0.590117
vt 0.669549 0.677672
vt 0.677032 0.675882
vt 0.476129 0.216756
vt 0.676055 0.715205
vt 0.458132 0.300132
vt 0.458132 0.216756
vt 0.458132 0.318530
vt 0.677469 0.622784
vt 0.375396 0.300132
vt 0.669853 0.655998
vt 0.670509 0.623672
vt 0.355903 0.300132
vt 0.685885 0.570479
vt 0.375396 0.216756
vt 0.671322 0.601734
vt 0.679001 0.569967
vt 0.253778 0.718494
vt 0.254893 0.734174
vt 0.118456 0.731409
vt 0.118507 0.717673
vt 0.255161 0.746767
vt 0.118202 0.744085
vt 0.676288 0.744027
vt 0.684607 0.742450
vt 0.375396 0.192447
vt 0.678639 0.789169
vt 0.253001 0.788410
vt 0.254731 0.540110
vt 0.119212 0.540017
vt 0.117146 0.782362
vt 0.253408 0.553926
vt 0.119151 0.553696
vt 0.674822 0.666618
vt 0.669183 0.666647
vt 0.670246 0.612820
vt 0.355903 0.318530
vt 0.675728 0.733733
vt 0.682002 0.733193
vt 0.679887 0.799835
vt 0.686199 0.797892
vt 0.576052 0.678824
vt 0.574556 0.666646
vt 0.585920 0.716557
vt 0.588638 0.735854
vt 0.589698 0.747581
vt 0.589185 0.795005
vt 0.588793 0.806751
vt 0.588120 0.562153
vt 0.578438 0.595273
vt 0.576269 0.607432
vt 0.575466 0.619380
vt 0.574343 0.654759
vt 0.441465 0.679433
vt 0.439449 0.666742
vt 0.439114 0.654590
vt 0.439360 0.618251
vt 0.439971 0.606073
vt 0.442371 0.593443
vt 0.455140 0.559330
vt 0.456361 0.804419
vt 0.457485 0.792432
vt 0.460883 0.747359
vt 0.459801 0.735272
vt 0.456664 0.717305
vt 0.252360 0.801005
vt 0.116742 0.794981
vt 0.591080 0.549077
vt 0.458448 0.546040
vt 0.687083 0.789486
vt 0.687491 0.560408
vt 0.355903 0.192447
vt 0.355903 0.216756
vt 0.681485 0.557822
vt 0.683403 0.722521
vt 0.476129 0.192447
vt 0.458132 0.192447
vt 0.375396 0.318530
vt 0.675815 0.613153
vt 0.678515 0.604303
vt 0.476129 0.318530
vt 0.676784 0.656786
vt 0.476129 0.300132
vt 0.959357 0.568719
vt 0.954823 0.568904
vt 0.954362 0.557774
vt 0.959070 0.557590
vt 0.969096 0.569248
vt 0.964430 0.569280
vt 0.964181 0.557834
vt 0.969026 0.557793
vt 0.969059 0.555894
vt 0.964233 0.555955
vt 0.964185 0.551524
vt 0.969020 0.551537
vt 0.959293 0.556191
vt 0.954600 0.556276
vt 0.954508 0.552040
vt 0.959207 0.551883
vt 0.968892 0.549633
vt 0.964071 0.549488
vt 0.964323 0.545624
vt 0.968961 0.545701
vt 0.959257 0.550431
vt 0.954567 0.550384
vt 0.954653 0.546560
vt 0.959162 0.546667
vt 0.866497 0.617209
vt 0.940460 0.609768
vt 0.851984 0.617270
vn 0.863706 0.503832 0.012834
vn 0.847871 0.530053 0.012591
vn -0.007888 0.999969 -0.000330
vn -0.007888 0.999969 -0.000330
vn -0.648832 -0.759724 -0.042862
vn -0.648836 -0.759720 -0.042862
vn 0.012616 -0.999920 0.000676
vn 0.019675 -0.999806 0.000978
vn 0.011666 0.999932 0.000644
vn 0.000625 1.000000 0.000237
vn -0.161661 0.986830 -0.005750
vn -0.161661 0.986830 -0.005750
vn -0.219237 -0.285674 -0.932912
vn -0.252198 -0.122445 -0.959898
vn -0.065995 -0.316625 -0.946252
vn -0.350773 -0.105254 0.930527
vn -0.311406 -0.247058 0.917600
vn -0.200024 -0.336405 0.920229
vn -0.949775 0.306009 -0.065465
vn -0.949775 0.306009 -0.065465
vn -0.993285 0.093255 -0.068464
vn -0.993286 0.093255 -0.068464
vn -0.069521 0.376682 -0.923730
vn -0.254412 0.141003 -0.956762
vn -0.259421 0.282847 -0.923417
vn -0.337225 0.245610 0.908821
vn -0.403721 0.012214 0.914801
vn -0.352147 0.122154 0.927939
vn -0.350547 -0.021583 -0.936296
vn -0.989722 -0.125684 -0.068218
vn -0.989722 -0.125684 -0.068218
vn -0.403932 -0.017899 0.914614
vn -0.350147 0.014176 -0.936587
vn 0.999858 -0.007697 0.014982
vn 0.999858 -0.007697 0.014982
vn 0.095935 0.995381 0.003750
vn 0.095935 0.995381 0.003750
vn -0.200108 0.402471 0.893294
vn -0.177011 0.198823 0.963917
vn -0.141346 0.132565 0.981044
vn 0.003371 -0.999994 0.000141
vn 0.003371 -0.999994 0.000141
vn 0.003371 -0.999994 0.000141
vn 0.003371 -0.999994 0.000141
vn 0.001162 0.148778 -0.988870
vn -0.029447 0.214826 -0.976208
vn -0.001431 0.999999 -0.000101
vn -0.001431 0.999999 -0.000101
vn -0.001431 0.999999 -0.000101
vn -0.001431 0.999999 -0.000101
vn -0.068767 0.000019 0.997633
vn -0.068766 0.000001 0.997633
vn 0.001428 -0.999999 0.000099
vn 0.001428 -0.999999 0.000099
vn 0.001428 -0.999999 0.000099
vn 0.001428 -0.999999 0.000099
vn 0.068750 -0.000001 -0.997634
vn 0.068751 0.000002 -0.997634
vn -0.997541 0.013540 -0.068758
vn -0.997541 0.013540 -0.068758
vn -0.997541 0.013540 -0.068758
vn -0.997541 0.013540 -0.068758
vn 0.068769 0.000002 -0.997633
vn 0.068769 0.000002 -0.997633
vn 0.068769 0.000002 -0.997633
vn 0.068769 0.000002 -0.997633
vn -0.068770 -0.000002 0.997633
vn -0.068770 -0.000002 0.997633
vn -0.068770 -0.000002 0.997633
vn -0.068770 -0.000002 0.997633
vn -0.997630 -0.002428 -0.068764
vn -0.997630 -0.002428 -0.068764
vn -0.997630 -0.002428 -0.068764
vn -0.997630 -0.002428 -0.068764
vn -0.068766 -0.000010 0.997633
vn -0.068766 -0.000010 0.997633
vn 0.068750 -0.000004 -0.997634
vn 0.068750 -0.000004 -0.997634
vn -0.068767 -0.000006 0.997633
vn -0.068767 -0.000006 0.997633
vn -0.068767 -0.000006 0.997633
vn -0.068767 -0.000006 0.997633
vn 0.068767 0.000006 -0.997633
vn 0.068767 0.000006 -0.997633
vn 0.068767 0.000006 -0.997633
vn 0.068767 0.000006 -0.997633
vn -0.997632 -0.001618 -0.068764
vn -0.997632 -0.001618 -0.068764
vn -0.997632 -0.001618 -0.068764
vn -0.997632 -0.001618 -0.068764
vn -0.068778 0.000011 0.997632
vn -0.068778 0.000011 0.997632
vn -0.068778 0.000011 0.997632
vn -0.068778 0.000011 0.997632
vn 0.068748 -0.000012 -0.997634
vn 0.068748 -0.000012 -0.997634
vn 0.068748 -0.000012 -0.997634
vn 0.068748 -0.000012 -0.997634
vn -0.996372 -0.050268 -0.068677
vn -0.996372 -0.050268 -0.068677
vn -0.996372 -0.050268 -0.068677
vn -0.996372 -0.050268 -0.068677
vn -0.085612 -0.267102 -0.959858
vn -0.085612 -0.267102 -0.959858
vn 0.084417 -0.996423 0.003745
vn 0.084417 -0.996423 0.003745
vn -0.248047 -0.261423 0.932808
vn -0.248047 -0.261423 0.932808
vn -0.998383 -0.005100 -0.056612
vn -0.981888 -0.001721 0.189454
vn -0.981284 0.001080 0.192563
vn -0.999405 -0.001021 -0.034467
vn -0.564571 -0.003929 0.825375
vn -0.255576 -0.000167 0.966789
vn -0.235786 -0.002901 0.971801
vn -0.564515 -0.005334 0.825405
vn -0.044837 0.002404 0.998991
vn 0.264716 0.006225 0.964306
vn 0.263810 0.004306 0.964565
vn -0.023621 -0.000424 0.999721
vn 0.866551 0.002186 0.499084
vn 0.961606 -0.003976 0.274404
vn 0.954549 0.000118 0.298054
vn 0.864580 0.004805 0.502472
vn -0.996312 0.077187 0.037484
vn -0.796929 0.600225 0.068068
vn -0.850917 0.499932 -0.161267
vn -0.987925 0.085320 -0.129323
vn -0.301505 0.948936 0.092820
vn -0.016216 0.993004 0.116965
vn -0.014236 0.999379 0.032221
vn -0.289853 0.956674 0.027561
vn -0.023043 0.977559 0.209398
vn 0.067920 0.974146 0.215466
vn 0.073214 0.989963 0.120880
vn -0.085574 0.628920 0.772746
vn -0.157647 0.109369 0.981420
vn 0.045513 0.109210 0.992976
vn 0.057774 0.617003 0.784837
vn 0.164122 0.974675 0.151896
vn 0.162009 0.980379 0.112300
vn 0.087483 0.994248 0.061781
vn 0.773868 0.526199 0.352482
vn 0.921397 0.072877 0.381729
vn 0.977901 0.067934 0.197725
vn 0.822558 0.519408 0.231547
vn -0.977050 -0.002808 -0.212992
vn -0.895821 -0.006159 -0.444373
vn -0.880136 -0.015467 -0.474470
vn -0.970169 -0.009015 -0.242261
vn -0.276203 -0.010007 -0.961047
vn 0.110300 -0.001511 -0.993897
vn 0.081061 -0.016209 -0.996577
vn -0.269429 -0.023625 -0.962730
vn 0.200393 -0.003445 -0.979709
vn 0.222799 0.496077 -0.839207
vn 0.329998 0.484828 -0.809965
vn 0.367174 -0.000301 -0.930152
vn 0.057428 0.989452 -0.132989
vn 0.108940 0.989020 -0.099857
vn 0.305606 0.001008 -0.952157
vn 0.574310 0.002415 -0.818634
vn 0.568306 -0.010749 -0.822747
vn 0.282910 -0.013029 -0.959058
vn 0.983665 -0.004154 -0.179958
vn 0.993659 -0.002136 0.112419
vn 0.996395 -0.008320 0.084428
vn 0.982648 -0.013381 -0.184994
vn -0.289072 0.943395 0.162613
vn -0.977450 0.069726 0.199325
vn -0.865699 0.483572 0.129321
vn -0.561384 0.093948 0.822206
vn -0.467391 0.556545 0.686879
vn 0.857555 0.071506 0.509398
vn 0.774626 0.482530 0.408801
vn 0.180121 0.963740 0.196880
vn 0.259401 0.097501 0.960836
vn 0.214907 0.553835 0.804414
vn -0.299821 -0.013990 -0.953893
vn -0.228006 0.422610 -0.877162
vn -0.927137 0.025081 -0.373881
vn -0.864771 0.340195 -0.369377
vn -0.212275 0.945545 -0.246745
vn 0.987056 0.031181 -0.157315
vn 0.900163 0.427039 -0.085698
vn 0.594109 -0.004892 -0.804370
vn 0.507162 0.400972 -0.762895
vn 0.162490 0.986702 0.004028
vn -0.999525 0.018771 0.024440
vn -0.979032 0.028125 0.201756
vn -0.988775 0.011415 -0.148975
vn -0.923044 -0.004182 -0.384671
vn 0.179028 -0.047408 -0.982701
vn -0.293856 -0.047257 -0.954681
vn 0.354688 -0.043991 -0.933949
vn 0.589252 -0.035117 -0.807186
vn 0.982952 0.012226 0.183454
vn 0.985866 -0.007180 -0.167382
vn 0.930254 0.020556 0.366340
vn 0.858421 0.030848 0.512017
vn 0.035148 0.054441 0.997898
vn 0.260365 0.055936 0.963889
vn -0.178057 0.053826 0.982547
vn -0.563039 0.049604 0.824940
vn -0.999946 0.003952 -0.009555
vn -0.980318 0.007808 0.197270
vn -0.564088 0.010486 0.825648
vn -0.207155 0.013294 0.978218
vn 0.004627 0.015361 0.999871
vn 0.262145 0.019551 0.964830
vn 0.861608 0.011335 0.507448
vn 0.944869 0.005410 0.327403
vn 0.989392 0.000880 0.145270
vn 0.984532 -0.007895 -0.175026
vn 0.581036 -0.006008 -0.813856
vn 0.328566 -0.010914 -0.944418
vn 0.144851 -0.015709 -0.989329
vn -0.283829 -0.017916 -0.958708
vn -0.910904 -0.008847 -0.412524
vn -0.983278 -0.000506 -0.182111
s 1
g Gate_Pillar
usemtl lambert4SG
f 8/1/1 9/169/2 118/3/3 123/4/4
s 2
f 6/5/5 7/6/6 32/7/7 33/8/8
s 3
f 2/9/9 3/10/10 4/11/11 5/12/12
s 4
f 7/6/13 8/1/14 32/7/15
s 5
f 9/2/16 6/5/17 33/8/18
s 2
f 5/12/19 4/11/20 13/13/21 14/14/22
s 4
f 3/10/23 12/15/24 4/11/25
s 5
f 5/12/26 14/14/27 15/16/28
s 4
f 10/17/29 8/1/14 7/6/13
s 2
f 11/18/30 10/17/31 7/6/6 6/5/5
s 5
f 9/2/16 11/18/32 6/5/17
s 4
f 13/13/33 12/15/24 8/1/14 10/17/29
s 2
f 14/14/22 13/13/21 10/17/31 11/18/30
s 5
f 15/16/28 14/14/27 11/18/32 9/2/16
s 1
f 12/15/34 15/167/35 9/169/2 8/1/1
s 3
f 3/10/10 2/9/9 17/19/36 16/20/37
s 5
f 2/9/38 15/16/28 18/168/39 17/19/40
s off
f 15/167/41 12/15/42 19/22/43 18/21/44
s 4
f 12/15/24 3/10/23 16/20/45 19/22/46
s off
f 28/23/47 29/24/48 30/25/49 31/26/50
s 5
f 17/19/40 18/168/39 22/27/51 21/28/52
s off
f 24/29/53 25/30/54 26/31/55 27/32/56
s 4
f 19/22/46 16/20/45 20/33/57 23/34/58
s off
f 18/21/59 19/22/60 121/35/61 117/36/62
f 125/143/63 126/144/64 127/145/65 128/146/66
f 129/147/67 130/148/68 131/149/69 132/150/70
f 16/20/71 17/19/72 29/24/73 28/23/74
s 5
f 17/19/40 21/28/52 30/25/75 29/24/76
s 4
f 20/33/57 16/20/45 28/23/77 31/26/78
s off
f 133/151/79 134/152/80 135/153/81 136/154/82
f 137/155/83 138/156/84 139/157/85 140/158/86
f 119/37/87 124/38/88 116/39/89 111/40/90
f 141/159/91 142/160/92 143/161/93 144/162/94
f 145/163/95 146/164/96 147/165/97 148/166/98
f 110/41/99 115/42/100 25/30/101 24/29/102
s 4
f 32/7/15 8/1/14 122/43/103 114/44/104
s 2
f 33/8/8 32/7/7 1/45/105 113/46/106
s 5
f 9/2/16 33/8/18 112/47/107 120/48/108
s 4
f 4/11/25 12/15/24 13/13/33
s 5
f 5/12/26 15/16/28 2/9/38
s 9
f 36/49/109 35/50/110 98/51/111 99/52/112
s 10
f 35/50/113 34/53/114 109/54/115 98/51/116
f 39/55/117 38/56/118 107/57/119 108/58/120
s 12
f 38/56/121 37/59/122 106/60/123 107/57/124
s 9
f 41/61/125 40/62/126 54/134/127 53/64/128
s 14
f 40/142/129 45/65/130 55/66/131 54/63/132
f 45/65/130 44/67/133 48/137/134 47/69/135
s 10
f 44/141/136 43/70/137 49/71/138 48/68/139
s 14
f 47/69/135 46/72/140 62/132/141 61/74/142
s 12
f 46/139/143 51/75/144 63/76/145 62/73/146
s 9
f 100/77/147 101/78/148 65/79/149 64/80/150
s 18
f 101/78/151 102/81/152 66/82/153 65/79/154
f 57/83/155 56/84/156 60/129/157 59/86/158
s 14
f 56/136/159 55/66/131 61/74/142 60/85/160
s 18
f 103/87/161 104/125/162 68/126/163 67/90/164
s 12
f 104/88/165 105/91/166 69/92/167 68/89/168
s 10
f 34/53/114 39/55/117 108/58/120 109/54/115
s 14
f 45/65/130 47/69/135 61/74/142 55/66/131
s 18
f 102/81/152 103/87/161 67/90/164 66/82/153
s 12
f 37/59/122 69/92/167 105/91/166 106/60/123
s 9
f 64/80/150 36/49/109 99/52/112 100/77/147
s 14
f 44/67/133 45/65/130 40/142/129 70/140/169
s 9
f 40/62/126 41/61/125 42/94/170 70/93/171
s 10
f 42/94/172 43/70/137 44/141/136 70/93/173
s 12
f 50/95/174 51/75/144 46/139/143 71/138/175
s 14
f 46/72/140 47/69/135 48/137/134 71/96/176
s 10
f 48/68/139 49/71/138 50/95/177 71/138/178
s 18
f 56/84/156 57/83/155 52/97/179 72/98/180
s 9
f 52/97/181 53/64/128 54/134/127 72/98/182
s 14
f 54/63/132 55/66/131 56/136/159 72/135/183
s 12
f 62/73/146 63/76/145 58/133/184 73/130/185
s 18
f 58/99/186 59/86/158 60/129/157 73/100/187
s 14
f 60/85/160 61/74/142 62/132/141 73/131/188
s 9
f 86/101/189 87/102/190 42/94/170 41/61/125
f 97/103/191 86/101/189 41/61/125 53/64/128
f 53/64/128 52/97/181 96/104/192 97/103/191
s 18
f 52/97/179 57/83/155 95/105/193 96/104/194
f 57/83/155 59/86/158 94/106/195 95/105/193
f 59/86/158 58/99/186 93/107/196 94/106/195
s 12
f 58/133/184 63/76/145 92/108/197 93/127/198
f 91/109/199 92/108/197 63/76/145 51/75/144
f 90/110/200 91/109/199 51/75/144 50/95/174
s 10
f 89/111/201 90/110/202 50/95/177 49/71/138
f 88/112/203 89/111/201 49/71/138 43/70/137
f 87/102/204 88/112/203 43/70/137 42/94/172
s 9
f 75/113/205 74/114/206 87/102/190 86/101/189
s 10
f 74/114/207 85/115/208 88/112/203 87/102/204
f 85/115/208 84/116/209 89/111/201 88/112/203
f 84/116/209 83/117/210 90/110/202 89/111/201
s 12
f 83/117/211 82/118/212 91/109/199 90/110/200
f 82/118/212 81/119/213 92/108/197 91/109/199
f 93/127/198 92/108/197 81/119/213 80/128/214
s 18
f 94/106/195 93/107/196 80/120/215 79/121/216
f 95/105/193 94/106/195 79/121/216 78/122/217
f 96/104/194 95/105/193 78/122/217 77/123/218
s 9
f 97/103/191 96/104/192 77/123/219 76/124/220
f 76/124/220 75/113/205 86/101/189 97/103/191
f 99/52/112 98/51/111 74/114/206 75/113/205
f 100/77/147 99/52/112 75/113/205 76/124/220
f 76/124/220 77/123/219 101/78/148 100/77/147
s 18
f 77/123/218 78/122/217 102/81/152 101/78/151
f 78/122/217 79/121/216 103/87/161 102/81/152
f 79/121/216 80/120/215 104/125/162 103/87/161
s 12
f 80/128/214 81/119/213 105/91/166 104/88/165
f 106/60/123 105/91/166 81/119/213 82/118/212
f 107/57/124 106/60/123 82/118/212 83/117/211
s 10
f 108/58/120 107/57/119 83/117/210 84/116/209
f 109/54/115 108/58/120 84/116/209 85/115/208
f 98/51/116 109/54/115 85/115/208 74/114/207
